<svg xmlns="http://www.w3.org/2000/svg" viewBox="0 0 599.43 164.55"><g data-name="Capa 2"><g data-name="Capa 1"><path d="M268.65 59.17a2.69 2.69 0 01-2.53 1.5 4.74 4.74 0 01-2.32-.75q-1.3-.75-3.17-1.67a29.89 29.89 0 00-4.47-1.71 21.37 21.37 0 00-6.14-.79 18.15 18.15 0 00-5.53.79 13.28 13.28 0 00-4.2 2.15 9.52 9.52 0 00-2.66 3.17 8.53 8.53 0 00-.92 3.92 6.54 6.54 0 001.54 4.44 13.32 13.32 0 004.06 3.07 35.16 35.16 0 005.69 2.29q3.21 1 6.59 2.12t6.59 2.49a23.94 23.94 0 015.73 3.41 15.61 15.61 0 014.06 5 15.36 15.36 0 011.53 7.13 22.59 22.59 0 01-1.71 8.84 19.3 19.3 0 01-5.05 7 24.37 24.37 0 01-8.19 4.68 33.68 33.68 0 01-11.2 1.71 34.91 34.91 0 01-13.11-2.36 33.2 33.2 0 01-10-6l2.87-4.64a4.17 4.17 0 011.3-1.37 3.65 3.65 0 012-.48 4.58 4.58 0 012.59 1q1.36 1 3.31 2.12a25.37 25.37 0 004.71 2.12 21.45 21.45 0 006.93 1 19 19 0 006.21-.92 13 13 0 004.44-2.49 9.87 9.87 0 002.63-3.62 11.24 11.24 0 00.85-4.37 7.25 7.25 0 00-1.54-4.74 13 13 0 00-4.06-3.21 33.18 33.18 0 00-5.77-2.32q-3.24-1-6.62-2.08t-6.56-2.6a23.25 23.25 0 01-5.77-3.52 15.9 15.9 0 01-4.06-5.22 16.88 16.88 0 01-1.54-7.54 18.4 18.4 0 011.64-7.61 18.65 18.65 0 014.78-6.42 23.51 23.51 0 017.71-4.4 30.87 30.87 0 0110.45-1.64A33 33 0 01262 48.82a29 29 0 019.39 5.9zm36.2 78.16a6.36 6.36 0 01-1.53 2.18 4.18 4.18 0 01-2.83.82h-9l12.63-27.44-28.55-65.12h10.51a3.59 3.59 0 012.46.79 4.92 4.92 0 011.3 1.74l18.5 43.55a31.75 31.75 0 011.06 3q.44 1.5.78 3.07.48-1.57 1-3.07t1.09-3.07l18-43.48a3.88 3.88 0 011.4-1.81 3.59 3.59 0 012.15-.72h9.69zm83.9-78.16a2.69 2.69 0 01-2.53 1.5 4.74 4.74 0 01-2.32-.75q-1.3-.75-3.17-1.67a29.91 29.91 0 00-4.47-1.71 21.35 21.35 0 00-6.14-.79 18.16 18.16 0 00-5.53.79 13.3 13.3 0 00-4.2 2.15 9.52 9.52 0 00-2.66 3.17 8.51 8.51 0 00-.92 3.92 6.54 6.54 0 001.54 4.44 13.33 13.33 0 004.06 3.07 35.26 35.26 0 005.73 2.29q3.21 1 6.59 2.12t6.59 2.49a24 24 0 015.68 3.42 15.61 15.61 0 014.06 5 15.36 15.36 0 011.54 7.13 22.62 22.62 0 01-1.71 8.84 19.31 19.31 0 01-5.05 7 24.35 24.35 0 01-8.19 4.68 33.68 33.68 0 01-11.2 1.71 34.92 34.92 0 01-13.11-2.36 33.21 33.21 0 01-10-6l2.87-4.64a4.17 4.17 0 011.3-1.37 3.65 3.65 0 012-.48 4.58 4.58 0 012.59 1q1.37 1 3.31 2.12a25.45 25.45 0 004.71 2.12 21.46 21.46 0 006.93 1 19 19 0 006.21-.92 13.06 13.06 0 004.44-2.49 9.89 9.89 0 002.63-3.62 11.24 11.24 0 00.85-4.37 7.25 7.25 0 00-1.54-4.74 13 13 0 00-4.06-3.21 33.09 33.09 0 00-5.77-2.32q-3.24-1-6.62-2.08T356.63 83a23.22 23.22 0 01-5.77-3.52 15.9 15.9 0 01-4.06-5.22 16.88 16.88 0 01-1.54-7.54 18.4 18.4 0 011.64-7.61 18.67 18.67 0 014.78-6.42 23.53 23.53 0 017.71-4.4 30.86 30.86 0 0110.44-1.64 33 33 0 0112.25 2.15 29 29 0 019.39 5.9zM425.88 118q-8.19 0-12.59-4.57t-4.4-13.17V57.94h-8.33a2.72 2.72 0 01-1.84-.65 2.52 2.52 0 01-.75-2v-4.86L409.29 49l2.8-21.37A2.59 2.59 0 01413 26a2.82 2.82 0 011.91-.65H421v23.78h19.8v8.81H421v41.5q0 4.37 2.12 6.49a7.39 7.39 0 005.46 2.12 9.66 9.66 0 003.31-.51 14.24 14.24 0 002.42-1.13q1-.61 1.74-1.13a2.28 2.28 0 011.26-.51 2.09 2.09 0 011.71 1.16l3.55 5.8a22.65 22.65 0 01-7.58 4.61 25.73 25.73 0 01-9.11 1.66zm76.51-1.08H497a6.43 6.43 0 01-2.87-.55 3 3 0 01-1.43-2.32l-1.36-6.42q-2.73 2.46-5.32 4.4a30.52 30.52 0 01-5.46 3.28 28.3 28.3 0 01-6.11 2 35.13 35.13 0 01-7.2.68 24.53 24.53 0 01-7.54-1.13 17.16 17.16 0 01-6.11-3.39 16.13 16.13 0 01-4.13-5.72 20 20 0 01-1.53-8.19 15.31 15.31 0 012.25-7.91 19.83 19.83 0 017.27-6.75 47.29 47.29 0 0113.14-4.83 89.45 89.45 0 0119.86-1.88v-5.4q0-8.11-3.45-12.26t-10.21-4.16a21.63 21.63 0 00-7.47 1.13 28.28 28.28 0 00-5.27 2.5q-2.22 1.4-3.82 2.53a5.52 5.52 0 01-3.17 1.13 3.63 3.63 0 01-2.15-.65 4.91 4.91 0 01-1.47-1.6l-2.18-3.89a39.49 39.49 0 0112.36-8.26 38.16 38.16 0 0114.68-2.73 26.2 26.2 0 0110.31 1.91 21.16 21.16 0 017.58 5.32 22.58 22.58 0 014.62 8.24 34.45 34.45 0 011.57 10.65zm-31.54-7.44a24.81 24.81 0 005.87-.65 23.15 23.15 0 005-1.84 26.47 26.47 0 004.5-2.9 38.72 38.72 0 004.2-3.89V85.93A81.51 81.51 0 00476.18 87a39.86 39.86 0 00-9.56 2.78 13.31 13.31 0 00-5.36 4.05 8.74 8.74 0 00-1.67 5.17 11.57 11.57 0 00.89 4.74 9 9 0 002.39 3.26 9.38 9.38 0 003.55 1.85 16.13 16.13 0 004.43.63zm60.09-83.42a7.75 7.75 0 01-.72 3.31 9.54 9.54 0 01-1.91 2.73 8.88 8.88 0 01-2.76 1.9 8.3 8.3 0 01-3.34.68 8.06 8.06 0 01-3.31-.68 9.09 9.09 0 01-4.61-4.61 8.05 8.05 0 01-.68-3.31 8.54 8.54 0 01.68-3.38 8.76 8.76 0 011.88-2.8 9 9 0 012.72-1.9 8.07 8.07 0 013.31-.68 8.32 8.32 0 013.34.68 8.9 8.9 0 012.76 1.88 9.29 9.29 0 011.91 2.8 8.21 8.21 0 01.73 3.38zm-2.73 21.71v69.15h-12.15V47.77zm13.67 69.15V47.77h7.24a3.1 3.1 0 013.28 2.53l1 7.51a38.9 38.9 0 0110.07-8.06 26.18 26.18 0 0112.87-3.07 25 25 0 0110 1.88 19.37 19.37 0 017.24 5.32 23.53 23.53 0 014.4 8.29 36.14 36.14 0 011.5 10.72v44h-12.2v-44q0-7.85-3.58-12.19t-11-4.33A20.43 20.43 0 00562.67 59a33.14 33.14 0 00-8.67 7v50.93z" fill="#22211f"/><path d="M19.17 138.68a36.56 36.56 0 001.16 5.54 30 30 0 01-5.9-2.44 26 26 0 01-6-4.47C-2 126.88-2.43 108.65 5.33 88.42c1 2 2 4 3.16 5.94a149.18 149.18 0 009.6 14.8q1.79 2.46 3.71 4.88c-2.66 8.96-3.59 17.33-2.63 24.64zM144.21 20.34a37.06 37.06 0 00-5.52-1.16c-7.3-1-15.7 0-24.65 2.63-1.87.56-3.76 1.19-5.68 1.9-1.8.67-3.61 1.4-5.45 2.2a125.8 125.8 0 00-16.06 8.47q-2.28 1.4-4.56 2.94t-4.39 3.06a171 171 0 00-37.53 37.51q-1.49-2.28-2.85-4.55a117.38 117.38 0 01-8.2-16.28c-.74-1.83-1.41-3.65-2-5.44a172.55 172.55 0 0124.3-24.3q2.28-1.87 4.58-3.61t4.8-3.52a140.36 140.36 0 0115.31-9.36q3-1.57 6-2.92t6.14-2.59c20.2-7.75 38.43-7.32 48.85 3.12a26 26 0 014.46 6 29.3 29.3 0 012.45 5.9z" fill="#398b9b"/><path d="M137.24 112.93a171 171 0 01-11.55 12.75 171.21 171.21 0 01-12.77 11.56q-2.28 1.86-4.58 3.6t-4.81 3.51a141.9 141.9 0 01-15.29 9.36c-2 1-4 2-6 2.92s-4.11 1.8-6.14 2.58c-20.23 7.76-38.45 7.32-48.89-3.11a26 26 0 01-4.47-6 29.24 29.24 0 01-2.44-5.9 36.6 36.6 0 005.54 1.16c7.31 1 15.7 0 24.65-2.64q2.81-.84 5.67-1.9c1.81-.66 3.63-1.4 5.46-2.2a126.53 126.53 0 0016.06-8.46c1.52-.94 3-1.92 4.56-2.94s2.93-2 4.39-3.05a168.16 168.16 0 0020.23-17.3 167.36 167.36 0 0017.29-20.22q1.49 2.28 2.85 4.55a117.72 117.72 0 018.2 16.28c.8 1.84 1.44 3.66 2.04 5.45zm21.98-36.79q-1.48-3-3.17-5.94a147.92 147.92 0 00-9.6-14.8q-1.79-2.46-3.71-4.88c2.67-8.95 3.6-17.35 2.63-24.65a37 37 0 00-1.16-5.52 29.91 29.91 0 015.91 2.44 26 26 0 016 4.46c10.41 10.42 10.88 28.65 3.1 48.89z" fill="#398b9b"/><path d="M76.13 5.34q-3 1.5-6 3.2A149.82 149.82 0 0055.4 18.1q-2.46 1.79-4.87 3.72c-9-2.67-17.36-3.61-24.66-2.64a37.06 37.06 0 00-5.52 1.16 30.08 30.08 0 012.44-5.91 26 26 0 014.46-6C37.67-2 55.89-2.43 76.13 5.34zm79.98 131.96a26 26 0 01-6 4.46 29.64 29.64 0 01-5.9 2.45 36.56 36.56 0 001.16-5.54c1-7.3 0-15.7-2.64-24.65q-.84-2.82-1.9-5.68-1-2.68-2.17-5.39a126.2 126.2 0 00-8.49-16.12c-.94-1.52-1.92-3-2.94-4.56s-2-2.92-3.05-4.38a168.53 168.53 0 00-17.3-20.22 167.49 167.49 0 00-20.23-17.3q2.28-1.49 4.56-2.85a118 118 0 0116.24-8.18c1.84-.74 3.67-1.42 5.48-2 4.33 3.54 8.6 7.39 12.76 11.55a171 171 0 0111.55 12.75q1.87 2.28 3.61 4.58t3.5 4.78a140.67 140.67 0 019.4 15.38q1.54 3 2.88 5.88 1.41 3.09 2.58 6.14c7.79 20.26 7.32 38.48-3.1 48.9zm-78.22-13.11c-1.52 1-3 1.94-4.55 2.85a117.91 117.91 0 01-16.24 8.18q-2.78 1.11-5.48 2a170.94 170.94 0 01-12.75-11.55c-4.16-4.16-8-8.43-11.55-12.76q-1.86-2.28-3.6-4.58-1.83-2.4-3.52-4.82a139.34 139.34 0 01-9.4-15.39q-1.55-2.94-2.88-5.86c-.94-2.06-1.8-4.12-2.58-6.15C-2.42 55.89-2 37.67 8.45 27.24a26.28 26.28 0 016-4.47 30.41 30.41 0 015.9-2.43 36.47 36.47 0 00-1.16 5.53c-1 7.3 0 15.71 2.63 24.65.56 1.87 1.19 3.77 1.9 5.68s1.39 3.58 2.18 5.39a126.21 126.21 0 008.49 16.12q1.4 2.28 2.94 4.56t3.06 4.38a167.45 167.45 0 0017.3 20.23 168.55 168.55 0 0020.2 17.31zm66.32 20.02a30 30 0 01-2.44 5.9 26 26 0 01-4.47 6c-10.43 10.43-28.66 10.87-48.89 3.11q3-1.49 6-3.21a147.29 147.29 0 0014.72-9.56q2.46-1.78 4.88-3.71c8.95 2.67 17.34 3.6 24.65 2.63a36.52 36.52 0 005.55-1.16z" fill="#f1b60a"/></g></g></svg>