<?xml version="1.0" encoding="UTF-8"?><svg id="a" xmlns="http://www.w3.org/2000/svg" viewBox="0 0 425.2 87.15"><polygon points="161.75 20.24 161.75 11.66 115.57 11.66 115.57 75.49 161.75 75.49 161.75 66.9 124.83 66.9 124.83 47.91 154.65 47.91 154.65 39.33 124.83 39.33 124.83 20.24 161.75 20.24" style="fill:#727373;"/><polygon points="211.49 39.45 181.79 39.45 181.79 20.24 218.38 20.24 218.38 11.66 172.41 11.66 172.41 75.49 181.79 75.49 181.79 48.04 211.49 48.04 211.49 39.45" style="fill:#727373;"/><path d="m269.93,75.6h11.19l-16.97-23.84.48-.12c9.31-2.35,14.44-9.28,14.44-19.5,0-12.95-8.18-20.37-22.44-20.37h-27.38v63.83h9.37v-23.08h15.92l15.39,23.08Zm-31.3-55.24h18.1c8.42,0,12.87,4.08,12.87,11.79s-4.45,11.79-12.87,11.79h-18.1v-23.57Z" style="fill:#727373;"/><path d="m350.04,75.6v-36.96c0-17.15-10.41-26.98-28.57-26.98s-28.27,9.84-28.27,26.98v36.96h9.31v-19.18h37.92v19.18h9.61Zm-47.53-27.6v-9.36c0-11.97,6.73-18.56,18.96-18.56s18.96,6.59,18.96,18.56v9.36h-37.92Z" style="fill:#727373;"/><path d="m424.99,39.75h-33.74s0,8.25,0,8.25h24.52c-1.76,10.8-10.03,18.5-21.18,19.34h0c-.41.01-.82.02-1.24.02-13.66,0-23.57-9.98-23.57-23.73s9.91-23.72,23.57-23.72c9.3,0,16.79,4.33,20.6,11.88h10.01c-4.63-12.43-16.31-20.13-30.61-20.13-18.92,0-32.66,13.45-32.66,31.97s13.73,31.97,32.66,31.97c.41,0,.83,0,1.24-.02h0c17.86-.93,30.61-14.1,30.61-31.95,0-1.32-.07-2.62-.21-3.89Z" style="fill:#727373;"/><path d="m55.04,0H0v55.04c0,17.71,14.4,32.11,32.11,32.11h55.04v-55.04C87.15,14.4,72.74,0,55.04,0Zm-22.92,75.51c-11.31,0-20.48-9.17-20.48-20.48V11.63h43.4c8.58,0,15.93,5.28,18.98,12.78h-37.5c-2.37,0-4.29,1.92-4.29,4.29v4.19c0,2.37,1.92,4.29,4.29,4.29h39v12.78h-39c-2.37,0-4.29,1.92-4.29,4.29v4.19c0,2.37,1.92,4.29,4.29,4.29h39v12.78h-43.4Z" style="fill:#f5834e;"/></svg>