<svg xmlns="http://www.w3.org/2000/svg" width="181" height="43" viewBox="0 0 181 43" fill="none"><path d="M77.7396 38.0666H72.0381V9.81531H77.7396V38.0666Z" fill="#E54325"></path><path d="M130.755 16.6896C130.321 14.4281 128.909 12.3999 126.972 11.1794C126.013 10.5691 124.909 10.1384 123.769 9.95888C123.479 9.90503 123.189 9.86913 122.918 9.86913C122.628 9.85118 122.321 9.83324 122.158 9.85118H107.171V15.505H122.158C122.393 15.505 122.465 15.505 122.556 15.523C122.664 15.5409 122.737 15.5409 122.846 15.5589C123.226 15.6127 123.588 15.7563 123.913 15.9717C124.565 16.3845 125.054 17.0666 125.18 17.8025C125.325 18.5563 125.162 19.3461 124.71 19.9563C124.257 20.5845 123.551 21.0153 122.791 21.123C122.701 21.1409 122.61 21.1409 122.502 21.1409C122.447 21.1409 122.429 21.1589 122.339 21.1589H122.049H120.891H118.592H107.189V38.1025H112.891V26.7948H121.941H122.049H122.339L122.737 26.7768C123.026 26.7589 123.316 26.7409 123.606 26.705C125.904 26.382 128.022 25.0896 129.343 23.2409C130.683 21.3563 131.208 18.9332 130.755 16.6896Z" fill="#E54325"></path><path d="M87.6045 15.9179C87.9303 15.7025 88.2923 15.5768 88.6724 15.5051C88.7629 15.4871 88.8534 15.4692 88.962 15.4692C89.0525 15.4692 89.1249 15.4512 89.3602 15.4512H104.347V9.81531H90.5005H89.3421C89.1973 9.81531 88.8715 9.81531 88.5819 9.83326C88.2923 9.83326 88.0027 9.8871 87.7312 9.923C86.5909 10.1025 85.4868 10.5333 84.5275 11.1435C82.5908 12.364 81.179 14.3922 80.7446 16.6538C80.2921 18.8974 80.8351 21.3384 82.1745 23.1692C83.4958 25.0179 85.6135 26.3281 87.9122 26.6333C88.2018 26.6871 88.4914 26.705 88.781 26.705L89.1792 26.723H89.4688H95.5323H95.8038L95.9486 26.7409C96.7269 26.7768 97.469 27.1538 97.9758 27.764C98.4826 28.3743 98.6998 29.1461 98.6093 29.9179C98.5188 30.6717 98.0663 31.3897 97.4328 31.8384C97.107 32.0717 96.745 32.2333 96.383 32.305C96.2925 32.323 96.1839 32.323 96.0934 32.3589C96.0029 32.3589 95.8943 32.3589 95.8038 32.3768H80.5998V38.0307H95.8038C96.0934 38.0127 96.383 38.0127 96.6726 37.9768C96.9622 37.9409 97.2518 37.8871 97.5414 37.8333C98.6998 37.5999 99.7858 37.1153 100.727 36.4333C102.627 35.105 103.949 32.9692 104.238 30.6538C104.564 28.3563 103.858 25.9153 102.356 24.1563C100.872 22.3794 98.6274 21.2307 96.2744 21.1051L95.84 21.0871H95.5323H89.1973C89.0887 21.0871 89.0887 21.0871 89.0344 21.0692C88.9439 21.0692 88.8353 21.0692 88.7448 21.0512C88.0027 20.9435 87.2787 20.5127 86.8262 19.8845C86.3737 19.2563 86.1927 18.4666 86.3556 17.7307C86.4823 17.0127 86.9529 16.3307 87.6045 15.9179Z" fill="#E54325"></path><path d="M145.017 9.81531H139.569L124.13 38.0666H130.61L133.705 32.4127H150.918L154.013 38.0666H160.493L145.017 9.81531ZM136.782 26.7768L142.302 16.6897L147.823 26.7768H136.782Z" fill="#E54325"></path><path d="M177.561 9.81531H154.773V15.4692H163.317V38.0666H169.018V15.4692H177.561V9.81531Z" fill="#E54325"></path><path d="M17.539 28.1589L13.9371 16.1333L10.1904 28.1589H17.539ZM20.7427 38.0666L18.625 31.7486H9.08633L6.96863 38.0666H3.34863L12.2176 9.81531H15.5118L24.3808 38.0666H20.7427Z" fill="#312F81"></path><path d="M24.3809 9.81531H28.0009V22.505L36.9966 9.81531H41.5216L32.4897 22.4333L43.5488 38.0666H39.1143L30.2996 25.5743L28.0009 28.7512V38.0666H24.3809V9.81531Z" fill="#312F81"></path><path d="M46.6439 12.723H50.282L47.205 38.0666H43.5488L46.6439 12.723Z" fill="#312F81"></path><path d="M51.2053 5.11279L50.2822 12.723H54.1013L55.0244 5.11279H51.2053Z" fill="#312F81"></path><path d="M59.6392 33.4539C60.4356 32.7718 60.7252 31.8206 60.7433 30.5821V9.81543H64.3452V30.6C64.309 32.8616 63.5126 34.6206 62.1008 35.9129C60.689 37.1872 58.698 38.0847 55.9649 38.0847C54.2092 38.0847 52.6526 37.5282 51.4399 36.9C50.2453 36.2718 49.2679 35.3744 48.5439 34.2077L51.6933 32.5744C53.9558 35.4282 58.2274 34.5667 59.6392 33.4539Z" fill="#312F81"></path></svg>